<svg width="40" height="40" viewBox="0 0 40 40" fill="none" xmlns="http://www.w3.org/2000/svg">
<mask id="mask0_4186_6852" style="mask-type:alpha" maskUnits="userSpaceOnUse" x="0" y="0" width="40" height="40">
<rect width="40" height="40" fill="#D9D9D9"/>
</mask>
<g mask="url(#mask0_4186_6852)">
<path d="M18.3335 28.333H21.6668V21.6663H28.3335V18.333H21.6668V11.6663H18.3335V18.333H11.6668V21.6663H18.3335V28.333ZM20.0002 36.6663C17.6946 36.6663 15.5279 36.2288 13.5002 35.3538C11.4724 34.4788 9.7085 33.2913 8.2085 31.7913C6.7085 30.2913 5.521 28.5275 4.646 26.4997C3.771 24.4719 3.3335 22.3052 3.3335 19.9997C3.3335 17.6941 3.771 15.5275 4.646 13.4997C5.521 11.4719 6.7085 9.70801 8.2085 8.20801C9.7085 6.70801 11.4724 5.52051 13.5002 4.64551C15.5279 3.77051 17.6946 3.33301 20.0002 3.33301C22.3057 3.33301 24.4724 3.77051 26.5002 4.64551C28.5279 5.52051 30.2918 6.70801 31.7918 8.20801C33.2918 9.70801 34.4793 11.4719 35.3543 13.4997C36.2293 15.5275 36.6668 17.6941 36.6668 19.9997C36.6668 22.3052 36.2293 24.4719 35.3543 26.4997C34.4793 28.5275 33.2918 30.2913 31.7918 31.7913C30.2918 33.2913 28.5279 34.4788 26.5002 35.3538C24.4724 36.2288 22.3057 36.6663 20.0002 36.6663ZM20.0002 33.333C23.7224 33.333 26.8752 32.0413 29.4585 29.458C32.0418 26.8747 33.3335 23.7219 33.3335 19.9997C33.3335 16.2775 32.0418 13.1247 29.4585 10.5413C26.8752 7.95801 23.7224 6.66634 20.0002 6.66634C16.2779 6.66634 13.1252 7.95801 10.5418 10.5413C7.9585 13.1247 6.66683 16.2775 6.66683 19.9997C6.66683 23.7219 7.9585 26.8747 10.5418 29.458C13.1252 32.0413 16.2779 33.333 20.0002 33.333Z" fill="white"/>
</g>
</svg>
