<svg width="40" height="40" viewBox="0 0 40 40" fill="none" xmlns="http://www.w3.org/2000/svg">
<mask id="mask0_4186_6858" style="mask-type:alpha" maskUnits="userSpaceOnUse" x="0" y="0" width="40" height="40">
<rect width="40" height="40" fill="#D9D9D9"/>
</mask>
<g mask="url(#mask0_4186_6858)">
<path d="M3.3335 16.6667C3.3335 13.8889 3.95155 11.3403 5.18766 9.02083C6.42377 6.70139 8.0835 4.77778 10.1668 3.25L12.1252 5.91667C10.4585 7.13889 9.13211 8.68056 8.146 10.5417C7.15989 12.4028 6.66683 14.4444 6.66683 16.6667H3.3335ZM33.3335 16.6667C33.3335 14.4444 32.8404 12.4028 31.8543 10.5417C30.8682 8.68056 29.5418 7.13889 27.8752 5.91667L29.8335 3.25C31.9168 4.77778 33.5766 6.70139 34.8127 9.02083C36.0488 11.3403 36.6668 13.8889 36.6668 16.6667H33.3335ZM6.66683 31.6667V28.3333H10.0002V16.6667C10.0002 14.3611 10.6946 12.3125 12.0835 10.5208C13.4724 8.72917 15.2779 7.55556 17.5002 7V5.83333C17.5002 5.13889 17.7432 4.54861 18.2293 4.0625C18.7154 3.57639 19.3057 3.33333 20.0002 3.33333C20.6946 3.33333 21.2849 3.57639 21.771 4.0625C22.2571 4.54861 22.5002 5.13889 22.5002 5.83333V7C24.7224 7.55556 26.5279 8.72917 27.9168 10.5208C29.3057 12.3125 30.0002 14.3611 30.0002 16.6667V28.3333H33.3335V31.6667H6.66683ZM20.0002 36.6667C19.0835 36.6667 18.2988 36.3403 17.646 35.6875C16.9932 35.0347 16.6668 34.25 16.6668 33.3333H23.3335C23.3335 34.25 23.0071 35.0347 22.3543 35.6875C21.7016 36.3403 20.9168 36.6667 20.0002 36.6667ZM13.3335 28.3333H26.6668V16.6667C26.6668 14.8333 26.0141 13.2639 24.7085 11.9583C23.4029 10.6528 21.8335 10 20.0002 10C18.1668 10 16.5974 10.6528 15.2918 11.9583C13.9863 13.2639 13.3335 14.8333 13.3335 16.6667V28.3333Z" fill="white"/>
</g>
</svg>
